<?xml version="1.0" encoding="UTF-8"?>
<!-- Created with Inkscape (http://www.inkscape.org/) -->
<svg width="708" height="691.2" version="1.1" viewBox="0 0 708 691.2" xmlns="http://www.w3.org/2000/svg" xmlns:cc="http://creativecommons.org/ns#" xmlns:dc="http://purl.org/dc/elements/1.1/" xmlns:rdf="http://www.w3.org/1999/02/22-rdf-syntax-ns#">
    <metadata>
        <rdf:RDF>
            <cc:Work rdf:about="">
                <dc:format>image/svg+xml</dc:format>
                <dc:type rdf:resource="http://purl.org/dc/dcmitype/StillImage" />
                <dc:title />
            </cc:Work>
        </rdf:RDF>
    </metadata>
    <path style="fill:#5C4033;stroke:none" d="m201.93 686.76v-.35603l14.556-21.935 12.118-20.071 4.5274-9.6 4.5274-9.6 2.0872-6 2.0872-6 3.1922-11.2 2.0296-12-.02-24.8-2.7324-13.87-1.3299-3.0652-1.3299-3.0652-1.2085 6.4-1.3325 9.2-1.3325 9.2-2.3735 9.6-2.3735 9.6-2.0842 6-2.0842 6-7.8671 15.197-7.3151 10.403-13.784 13.6-12.357 8.3669-6.4011 3.2656v-1.5671l7.2846-14.065 5.2553-12.8 1.7279-4.8 1.7279-4.8 1.598-9.6 1.598-9.6-.00138-6.4-1.6038-12.149-1.6038-12.149-2.3147-9.0507-2.3147-9.0507-4.3236-15.2-1.0811-3.3288-1.081-3.3288-1.6779-9.8712-1.6779-9.8712-.008-28.8 2.0883-13.173 2.0883-13.173 1.2166-4.0272 1.2166-4.0272 4.7735-15.2 2.8353-7.2 2.8353-7.2 3.9371-8.352 3.9372-8.352-.24828-.74481-.24827-.74481-12.294 9.8898-10.508 11.504-8.8571 13.301-3.8857 7.7618-3.8857 7.7618-4.8762 13.576-3.944 13.729-3.3497 16.437-1.13 9.3168-1.13 9.3168-1.1063 25.2h-1.1268l-2.4862-6-5.7257-13.466-5.5295-16.934-1.637-5.6-1.637-5.6-2.4426-11.778-.6331-1.0244-2.0639-13.999-2.064-13.999-.84158-14.454-.84159-14.454.85826-15.868.85827-15.868.286-.47751.286-.47749 1.3306-9.2 1.3306-9.2 4.7829-20 6.5063-19.2 6.3036-15.2 9.2758-17.6 9.962-15.746-.36638-.36639-.36639-.36638-9.388 4.5598-8.95 5.7392-11.224 9.6599-9.6139 11.951-8.9688 13.619-7.1222 13.841-2.8647 7.0757-2.8647 7.0757-5.6467 17.358-2.0151 10-2.0151 10-1.1151 15.2-5.1538-13.002-3.8786-14.998-.97529-10.39-.97528-10.39.54471-9.6102.54471-9.6102.78345-5.6.78345-5.6 4.0152-16 6.3948-18.4 11.821-24 2.5489-4 2.549-4 8.9974-13.521 9.3973-11.903 12.203-12.788 11.2-9.1433 11.2-7.6782 36.8-21.115 11.6-6.9729v-1.406l-4.4.89222-15.349 2.3973-19.851 4.8445-21.6 7.3897-22.665 10.823-14.797 9.1532-8.1378 5.6488-11.2 8.9055-15.2 13.104-12.695 14.168-2.6021 2.4-6.4623 8-14.376 19.2-10.913 16-12.265 20-9.2554 16.4h-.71002l.52411-5 .52411-5 4.5073-21.6 4.0415-13.894 4.7512-13.306 4.9997-11.986 12.156-23.214 5.6853-8.8 13.144-18.4 10.648-12.8 18.699-19.046 16.091-13.863 11.909-8.7406 9.6177-6.5021 11.982-7.2552 17.6-8.8658 5.6-2.4152 12-4.8523 12.8-3.9665 16.602-4.1727 10.198-.95233v-2.0608l-3.1878-1.0118-7.9533-6.2867-6.5382-8.6598-5.4369-13.35-1.8931-14.8 1.8486-14.414 4.2136-11.368 7.493-11.418 12.693-12 13.562-7.2964 8.8-3.4184 6.4-1.7344 16-.9677 16.426 1.9112 14.724 4.7325 15.77 7.9512 13.879 9.046 17.12 13.476 22.582 21.757 16.298-3.5482 22.78-4.74 20.42-3.229 16-1.7277 32 .91355 19.502 3.9644 11.619 4.1913 11.279 5.8593 10.414 10.459 6.8822 12.8 10.47 28.781 3.7598 7.4196 1.2542.48129 1.2542.48131 39.566-1.5367 22.735-.0262 11.665 1.4915 17.249 1.8664 8.0283 2.1178 6.7223-2.9494 12.333-2.5263h13.3l11.968 3.2889 6.26 4.1059 5.3676 5.8052 2.3724 7.8904-.0236 8.9096-1.2078 5.1241-1.2078 5.1241-6.2474 13.332-10.113 16.084-3.0227 4.8861-3.0228 4.8861-4.7686 10.865-.98706 9.4436 1.3509 8.328 1.3509 8.328-.25029 6.8-.25031 6.8-2.3869-.52896-13.613-.8645-11.2 2.7724-8.9158 4.8342-3.3709 6.5869-3.2931 8.4-3.2931 8.4-1.7636 3.435-1.7636 3.435-1.8106 1.7144-1.8106 1.7144-1.3373-1.4988-3.6042-16-4.7852-15.641-2.5261-3.7797-2.5258-3.7797-7.7433-5.1749-11.457-3.6251-26.4.0532-17.956 3.6573-18.844 6.1094-14.4 5.6457-8.8997 4.6909-7.9003 4.5367-16.217 10.937-11.959 12.517-2.7123 5.5154-2.7123 5.5154.0677 8.4109.0677 8.4109 2.796 10.4 4.6517 8.1653 7.8044 7.3001 8.3608 4.2367 13.852 3.0633 11.393.0346 18.207-3.1638 13.6-4.6708 9.3702-4.2205 21.03-10.271 7.0512-6.0737 19.349-16.62 11.2-8.4128 6.3763-3.3677h2.8237v26.844l2.4009 3.4277 8.1886 2.7198 23.41-.1476 6 .89677v2.0522l-6.3272 6.1407-15.056 5.8585-5.0628 3.7431-2.1769 4.4324-2.1768 4.4325.1898 18.4 1.3192 5.9192 1.3192 5.9193-.56437.56436-7.0638-2.2491-13.6-4.9734-9.6-.93409-17.703 4.0382-19.897 9.2588-20.8 11.832-10.4 6.8873-17.6 15.515-14.4 10.78-15.2 8.8742-16 7.8386-11.2 6.2239-12 7.9879-13.6 10.878-16.8 13.371-8.5828 8.6676-10.528 14.141-6.8769 10.659-6.2434 12.8-1.7042 3.8-1.7043 3.8-.48333 2.4166-.48332 2.4166-.57968.35827-.57969.35827-.8897-1.9527-.88969-1.9526-.93475-5.3678-.93476-5.3678.42793-8.0545.42794-8.0545 2.4795-7.6828 2.4795-7.6827v-1.8345h-6.3272l-10.073 3.6673-13.813 9.1105-12.373 13.152-3.4144 4.9898-9.5638 14.28-11.285 22.4-2.5332 7.2-2.5333 7.2-1.2929 4.8-1.2929 4.8-1.493 7.2-1.493 7.2-4.1811 16-2.0886 4.5615-2.0886 4.5615-2.1383.82054-.71962-3.5435-.4994-4.3772-.49941-4.3772-2.9864-11.246-.53082-4.2-.53083-4.2h-1.193l-1.9978 4.4-9.0584 14.4-10.175 13.273-14.778 16.327-11.885 11.2-15.163 11.392-13.6 7.5381-5.2 2.1879zm184.24-231.36-.51376-1.4-7.4561-13.6-2.0302-4.4-2.0301-4.4-1.903-5.6-1.9029-5.6v-20l4.6244-13.6 4.8887-9.6 1.1447 8 .88679 7.4083.88677 7.4083 2.0818 6.5917 2.0818 6.5917 4.1052 8 2.9538 4.4 2.9538 4.4 9.8708 9.3882.89663-.89663-5.201-7.6915-7.6319-14.4-5.2518-16-.03-26.4 3.5472-16.289.96345-2.5107h-2.4385l-7.3297 3.1419-10.819 10.858-5.8332 11.2-2.1037 5.2-2.1038 5.2-4.7429 18.365v2.7403l-1.4551.89931-3.2565-6.6024-3.2565-6.6024-4.3106-13.6-.0818-24 4.5286-16 8.047-17.394 7.0721-12.785-.31409-.3141-.3141-.31409-8.659 1.632-11.2 5.3301-11.823 9.4455-12.177 14.591-8.3187 13.965-.68134 1.844-1.6195-1.6-1.2927-10.4-1.2927-10.4.002-14.421.002-14.421.82673-6.779.82672-6.779 4.7167-18.4 4.634-12 3.7058-8.8 9.4533-18.4 5.7118-10.4 2.6378-4 4.3547-7.6h-1.3031l-9.6726 11.6-10.854 15.011-8.5268 14.062-8.0148 16.527-3.8862 9.6-1.7386 5.4713-1.7386 5.4713-2.0921 8.5287-2.0922 8.5287-.36116 14.56-.36117 14.56 1.7511 8.6401 1.7511 8.6401 4.9378 14.4 4.221 8.8 5.2657 9.2h1.4473v-4.803l2.4229-6.9926 2.4229-6.9925 7.7116-15.295 7.8427-11.909 9.8106-10.008h2.6972l-1.1105 3.6-2.3567 4.6288-4.6648 14.514-.91468 9.3472-.91469 9.3472.89604 8.6815.89603 8.6815 4.0553 13.6 5.0963 11.2 7.1554 11.2 8.1545 9.6604 10.108 8.7396 10.762 7.3567 1.165.4585 1.165.45851.34978.1262-.51376-1.4zm276.06-291.4 1.1714-4.4 1.1565-3.7522-16.973.55215-2.4732 2.4769 2.4214 13.886 4.838 12.179 3.3431 6.6585 2.1086 2.8 2.1086 2.8.56353-14.4.56352-14.4zm-190.35-18.159 12.856-5.359 22.8-.65996-.00014-.91103-.00013-.91104-2.4292-12.8-.84731-2.6-.8473-2.6h-2.143l-10.933 5.787-12.8 8.9404-19.6 15.081v1.3913h1.0884zm-226.41-53.153-1.355-5.0885-.1712-9.6 2.8756-7.4738 6.8458-6.3102 9.4701-3.6491 9.2.009 9.2.008 15.914 4.252 13.467 7.164h.67568l-.90282-1.6869-.90281-1.6869-12.202-12.771-12.834-9.6705-11.215-5.1017-7.2-1.7574-10.568-1.0867-9.4318 1.9504-7.2 3.3394-8.1272 8.2639-3.8489 10.208.25044 9.6 1.6061 4.5604 1.6061 4.5604 6.4443 9.4897 9.1606 8.1648.29908-.29908.29908-.29907-1.355-5.0885z" stroke-width=".8" />
</svg>