<?xml version='1.0' encoding='utf-8'?>
<svg xmlns="http://www.w3.org/2000/svg" width="61.857719mm" height="39.323769mm" viewBox="0 0 61.857719 39.323769" version="1.1" id="svg4565">
    <defs id="defs4559"></defs>
    <metadata id="metadata4562"></metadata>
    <g id="layer2" style="display:inline;opacity:0.99" transform="translate(-72.509537,-167.82363)">
        <path style="display:inline;opacity:1;vector-effect:none;fill:#36454F;fill-opacity:1;stroke:#000000;stroke-width:1.0003686;stroke-linecap:round;stroke-linejoin:round;stroke-miterlimit:4;stroke-dasharray:none;stroke-dashoffset:0;stroke-opacity:1" d="m 73.016031,181.73959 c 4.518941,10.65179 14.20891,21.14592 18.721327,23.72445 3.389209,1.93669 19.366892,1.12974 20.819402,0.16139 5.28511,-3.52341 15.49352,-14.041 21.30359,-23.07888" id="path5176" />
        <path style="display:inline;opacity:1;vector-effect:none;fill:#36454F;fill-opacity:1;stroke:#000000;stroke-width:1.0003686;stroke-linecap:round;stroke-linejoin:round;stroke-miterlimit:4;stroke-dasharray:none;stroke-dashoffset:0;stroke-opacity:1" d="m 73.016031,181.73959 c 5.164505,7.58537 14.84795,20.9808 16.623249,22.27193" id="path5180" />
        <path style="display:inline;opacity:1;vector-effect:none;fill:#36454F;fill-opacity:1;stroke:#000000;stroke-width:1.0003686;stroke-linecap:round;stroke-linejoin:round;stroke-miterlimit:4;stroke-dasharray:none;stroke-dashoffset:0;stroke-opacity:1" d="m 133.86035,182.54655 c -4.19616,1.6139 -11.78153,13.23404 -13.71822,16.46186" id="path5182" />
        <path style="display:inline;opacity:1;vector-effect:none;fill:#36454F;fill-opacity:1;stroke:#000000;stroke-width:1.0003686;stroke-linecap:round;stroke-linejoin:round;stroke-miterlimit:4;stroke-dasharray:none;stroke-dashoffset:0;stroke-opacity:1" d="m 73.016031,181.73959 c 6.132849,3.22782 11.135963,1.29114 15.170729,2.09809" id="path5184" />
        <path style="display:inline;opacity:1;vector-effect:none;fill:#36454F;fill-opacity:1;stroke:#000000;stroke-width:1.0003686;stroke-linecap:round;stroke-linejoin:round;stroke-miterlimit:4;stroke-dasharray:none;stroke-dashoffset:0;stroke-opacity:1" d="m 133.86035,182.54655 c -5.97146,2.09807 -3.3892,0.16139 -15.97769,1.45252" id="path5186" />
        <path style="display:inline;opacity:1;vector-effect:none;fill:#36454F;fill-opacity:1;stroke:#000000;stroke-width:1.0003686;stroke-linecap:round;stroke-linejoin:round;stroke-miterlimit:4;stroke-dasharray:none;stroke-dashoffset:0;stroke-opacity:1" d="m 87.997545,189.18305 -0.114087,2.58225 c 0,0 -0.826429,0.14192 2.724164,1.43304 3.550598,1.29112 21.391898,3.68812 27.853818,-1.43304 0.81808,-0.64834 -0.22817,-2.14538 -0.22817,-2.14538 0,0 -0.0278,0.512 -1.80312,1.80312 -1.7753,1.29112 -25.043396,3.73147 -28.432605,-2.23999 z" id="path5188" />
        <path style="display:inline;opacity:1;vector-effect:none;fill:#36454F;fill-opacity:1;stroke:#000000;stroke-width:1.0003686;stroke-linecap:round;stroke-linejoin:round;stroke-miterlimit:4;stroke-dasharray:none;stroke-dashoffset:0;stroke-opacity:1" d="m 87.997545,189.18305 c 1.115821,-8.77076 1.115821,-11.16657 5.337027,-14.13283 4.221205,-2.96625 2.28173,-5.59024 4.905722,-6.50293 2.623996,-0.91269 2.053556,1.25495 2.509906,1.7113 0.45634,0.45634 3.4226,0.91269 3.99303,0.57043 0.57043,-0.34226 0.34226,-1.59721 1.36903,-1.93947 1.02678,-0.34226 2.624,0.22817 3.65077,1.7113 1.02679,1.48312 4.56347,5.0198 6.04659,7.75788 1.48313,2.73809 1.88104,6.55025 2.42365,11.26119" id="path5190" />
        <path style="display:inline;opacity:1;vector-effect:none;fill:#36454F;fill-opacity:1;stroke:none;stroke-width:1;stroke-linecap:butt;stroke-linejoin:round;stroke-miterlimit:4;stroke-dasharray:none;stroke-dashoffset:0;stroke-opacity:1;fill-rule:nonzero" d="m 93.740403,176.98329 c -0.781002,0.58558 -1.660784,1.26136 -1.660784,1.26136 0,0 1.199907,0.34595 2.263794,-0.46363 1.898951,-1.43542 2.980097,-3.97712 3.543901,-5.79539 0.23907,-0.76877 -0.103363,-1.61295 -0.103363,-1.61295 0,0 -0.641594,0.6369 -0.851773,1.31679 -0.531429,1.71385 -1.613366,4.10069 -3.191775,5.29382 z" id="path5192" />
        <path style="display:inline;opacity:1;vector-effect:none;fill:#36454F;fill-opacity:1;stroke:none;stroke-width:1;stroke-linecap:butt;stroke-linejoin:round;stroke-miterlimit:4;stroke-dasharray:none;stroke-dashoffset:0;stroke-opacity:1;fill-rule:nonzero" d="m 101.74904,173.509 c -0.96972,-0.76047 -2.025619,-1.88137 -2.025619,-1.88137 0,0 0.09925,1.60284 1.400629,2.662 0.98695,0.79018 2.0779,0.94552 3.02263,0.71918 0.94473,-0.22634 1.75341,-0.78828 2.38606,-1.37553 0.59369,-0.55023 0.6063,-1.43522 0.6063,-1.43522 0,0 -0.82501,0.27306 -1.28662,0.7023 -0.5502,0.51072 -1.24061,0.96871 -1.93873,1.13597 -0.69812,0.16726 -1.39377,0.0899 -2.16465,-0.52733 z" id="path5194" />
        <path style="display:inline;opacity:1;vector-effect:none;fill:#36454F;fill-opacity:1;stroke:none;stroke-width:1;stroke-linecap:butt;stroke-linejoin:round;stroke-miterlimit:4;stroke-dasharray:none;stroke-dashoffset:0;stroke-opacity:1;fill-rule:nonzero" d="m 110.06976,172.64456 c -0.46389,-1.11685 -1.21942,-2.27188 -1.21942,-2.27188 0,0 -0.23263,1.37817 0.29565,2.65482 0.92695,2.23608 2.26764,3.59624 3.67932,4.73955 0.71063,0.57527 1.72936,0.70577 1.72936,0.70577 0,0 -0.42079,-0.93251 -1.09999,-1.48287 -1.35378,-1.09643 -2.53212,-2.28817 -3.38492,-4.34539 z" id="path5196" />
        <path transform="matrix(0.99775974,-0.06689922,0.99768047,0.06807118,0,0)" style="fill:#36454F;fill-opacity:1;fill-rule:nonzero;stroke:none;stroke-width:0.70870912;stroke-linecap:butt;stroke-linejoin:round;stroke-miterlimit:4;stroke-dasharray:none;stroke-dashoffset:0;stroke-opacity:1" d="m -1544.136,1627.2785 c -2.5489,0 -5.0978,0.3544 -5.0978,0.3544 0,0 2.5489,0.3544 5.0978,0.3544 h 20.0366 v 24.5607 l -24.78,0 v -19.8612 c 0,-2.5269 -0.3544,-5.0539 -0.3544,-5.0539 0,0 -0.3544,2.527 -0.3544,5.0539 v 20.57 h 26.1976 v -25.9783 z" id="rect834" />
    </g>
</svg>