<?xml version="1.0" encoding="utf-8"?>
<!-- Generator: Adobe Illustrator 16.0.0, SVG Export Plug-In . SVG Version: 6.00 Build 0)  -->
<!DOCTYPE svg PUBLIC "-//W3C//DTD SVG 1.1//EN" "http://www.w3.org/Graphics/SVG/1.1/DTD/svg11.dtd">
<svg version="1.1" id="Layer_1" xmlns="http://www.w3.org/2000/svg" xmlns:xlink="http://www.w3.org/1999/xlink" x="0px" y="0px"
	 width="815.625px" height="535.417px" viewBox="0 0 815.625 535.417" enable-background="new 0 0 815.625 535.417"
	 xml:space="preserve">
<g>
	<path fill="#0000ff" stroke="#000000" stroke-width="0.9339" stroke-linecap="round" stroke-linejoin="round" d="M404.297,449.213
		c28.038,3.4,58.772-7.846,79.657-26.338c22.627-20.034,35.396-48.167,36.313-78.172c-0.208-13.251-1.605-24.739-5.313-37.482
		c-3.441-11.831-10.17-22.33-17.337-32.178c-14.762-20.283-37.894-32.262-61.558-38.56c-58.188-15.484-121.029,28.959-129.681,87.39
		c-4.56,30.794,3.136,60.31,22.044,85.062C346.851,433.056,374.834,445.64,404.297,449.213z M368.533,324.656
		c4.586-13.297,17.146-24.994,30.835-28.454c16.077-4.063,30.575-0.813,43.782,9.128c12.43,9.355,17.073,24.454,16.796,39.374
		c0.056,0,0.112,0,0.168,0c-0.318,0-1.139,6.896-1.396,8.111c-1.419,6.671-4.32,13.527-8.982,18.621
		c-10.913,11.926-23.775,17.811-40.028,17.541c-13.13-0.219-29.315-8.571-35.991-20.237
		C365.509,354.398,363.062,340.517,368.533,324.656z"/>
	<path fill="#000000" stroke="#000000" stroke-width="0.9339" stroke-linecap="round" stroke-linejoin="round" d="M384.265,88.313
		c5.436-0.34,10.83-0.561,16.275-0.685c11.202-0.255,22.326-0.061,33.531,0.191c1.089,0.067,8.306,0.865,8.35,0.229
		c0.141-2.031,0.28-4.062,0.421-6.093c0.639-9.253,1.278-18.507,1.917-27.76c1.074-15.54,2.147-31.081,3.221-46.621
		c-23.212,0-46.424,0-69.636,0c1.713,24.522,3.426,49.044,5.139,73.565C383.533,81.865,383.646,88.352,384.265,88.313z"/>
	<path fill="#000000" stroke="#000000" stroke-width="0.9339" stroke-linecap="round" stroke-linejoin="round" d="M261.457,118.556
		c4.973-2.073,9.954-4.037,14.994-5.941c10.509-3.969,21.078-7.326,31.813-10.651c1.051-0.303,8.12-1.957,7.952-2.584
		c-0.527-1.968-1.054-3.937-1.581-5.905c-2.4-8.969-4.8-17.938-7.2-26.907c-4.03-15.063-8.061-30.125-12.091-45.187
		c-21.942,7.64-43.885,15.279-65.828,22.919c9.623,22.58,19.245,45.161,28.868,67.741
		C258.665,112.699,260.899,118.789,261.457,118.556z"/>
	<path fill="#000000" stroke="#000000" stroke-width="0.9339" stroke-linecap="round" stroke-linejoin="round" d="M195.617,157.183
		c0.875-0.653,6.908-4.708,6.532-5.225c-1.196-1.64-2.391-3.28-3.586-4.92c-5.447-7.473-10.894-14.946-16.341-22.419
		c-9.147-12.55-18.295-25.1-27.443-37.65c-17.839,14.961-35.678,29.922-53.517,44.883c18.814,19.347,37.627,38.694,56.441,58.042
		C169.424,177.889,182.455,167.542,195.617,157.183z"/>
	<path fill="#000000" stroke="#000000" stroke-width="0.9339" stroke-linecap="round" stroke-linejoin="round" d="M103.593,242.46
		c-7.967-4.738-15.935-9.476-23.902-14.213c-13.381-7.957-26.761-15.913-40.142-23.87c-10.439,20.765-20.877,41.529-31.316,62.293
		c24.821,10.371,49.642,20.741,74.463,31.111c6.388-15.612,14.032-30.229,22.339-44.883c0.532-0.943,4.365-6.985,3.805-7.319
		C107.09,244.54,105.341,243.5,103.593,242.46z"/>
	<path fill="#000000" stroke="#000000" stroke-width="0.9339" stroke-linecap="round" stroke-linejoin="round" d="M511.256,101.25
		c10.706,3.387,21.283,6.809,31.793,10.753c5.086,1.909,10.12,3.875,15.146,5.939c0.568,0.234,2.794-5.852,3.076-6.515
		c9.623-22.579,19.245-45.159,28.868-67.738c-21.987-7.641-43.974-15.281-65.961-22.921c-4.012,15.063-8.022,30.125-12.034,45.188
		c-2.389,8.969-4.776,17.938-7.165,26.907c-0.524,1.969-1.049,3.937-1.573,5.905C503.241,99.389,510.215,100.96,511.256,101.25z"/>
	<path fill="#000000" stroke="#000000" stroke-width="0.9339" stroke-linecap="round" stroke-linejoin="round" d="M624.039,156.572
		c13.091,10.387,25.943,20.854,37.88,32.575c18.825-19.302,37.649-38.603,56.475-57.905c-17.839-14.961-35.677-29.922-53.516-44.883
		c-9.444,12.92-18.889,25.84-28.332,38.759c-5.345,7.312-10.689,14.623-16.034,21.934c-1.077,1.474-2.154,2.947-3.231,4.421
		C617.125,151.685,623.287,156.022,624.039,156.572z"/>
	<path fill="#000000" stroke="#000000" stroke-width="0.9339" stroke-linecap="round" stroke-linejoin="round" d="M777.285,204.855
		c-13.374,7.937-26.747,15.874-40.121,23.811c-7.964,4.726-15.927,9.452-23.891,14.178c-1.748,1.037-3.495,2.074-5.243,3.112
		c-0.588,0.349,3.123,6.581,3.633,7.557c8.456,14.568,16.166,29.037,22.342,44.745c24.865-10.359,49.731-20.719,74.597-31.078
		C798.163,246.404,787.723,225.63,777.285,204.855z"/>
	<path fill="#000000" stroke="#000000" stroke-width="0.9339" stroke-linecap="round" stroke-linejoin="round" d="M669.59,312.278
		c-13.368-26.73-32.723-50.763-53.82-71.731c-41.98-41.726-100.495-72.175-159.452-80.016c-30.239-4.021-62.265-6.269-92.482-0.354
		c-15.302,2.995-31.326,5.484-46.048,10.814c-15.169,5.492-29.525,11.428-44.146,18.246C245.412,202.4,220.994,223,198.619,244.235
		c-21.953,20.835-38.771,46.71-52.562,73.424c-13.423,26.001-21.757,54.047-27.49,82.64c16.024,0.034,32.049,0.068,48.074,0.103
		c1.239,0.002,4.911-19.283,5.483-21.633c1.731-7.101,4.677-14.071,6.999-21.004c4.427-13.216,11.703-28.036,19.48-39.604
		c8.252-12.275,16.351-25.168,26.704-35.844c21.163-21.824,44.441-42.003,72.18-55.113c28.351-13.399,57.642-22.848,89.037-25.45
		c31.477-2.608,62.046,0.5,92.457,8.935c30.06,8.338,56.788,23.706,81.857,41.884c24.568,17.815,42.957,41.942,59.603,66.914
		c7.604,11.407,15.001,26.564,19.24,39.603c2.25,6.922,5.072,13.87,6.771,20.945c0.695,2.893,3.359,20.367,5.688,20.367
		c16.112,0,32.225,0,48.336,0c-4.091-15.527-8.319-30.945-12.886-46.339C683.269,339.488,676.36,325.815,669.59,312.278z"/>
	<path fill="#000000" stroke="#000000" stroke-width="0.9339" stroke-linecap="round" stroke-linejoin="round" d="M587.873,401.438
		c-5.409,5.389-10.817,10.778-16.227,16.167c-17.89,17.824-39.85,32.086-62.634,42.723c-28.184,13.156-57.389,20.006-88.314,22.427
		c-30.747,2.406-60.489-3.608-89.813-12.187c-13.982-4.091-27.265-11.548-40.204-18.063c-12.121-6.104-25.818-15.471-35.773-24.684
		c-5.458-5.052-11.408-9.845-16.425-15.336c-4.209-4.606-7.935-12.085-14.475-12.085c-17.104,0-34.207,0-51.311,0
		c2.525,3.628,4.982,7.308,7.654,10.829c17.934,23.642,39.159,48.049,64.598,64.015c13.17,8.266,26.289,16.731,40.294,23.558
		c14.139,6.891,28.889,11.811,43.757,16.804c28.941,9.718,60.337,11.528,90.567,11.396c29.902-0.13,59.827-7.652,87.896-17.369
		c56.375-19.517,106.293-59.718,139.222-109.232c-15.33,0-30.66,0-45.99,0C597.324,400.401,590.441,398.879,587.873,401.438z"/>
</g>
</svg>
