<?xml version="1.0" encoding="utf-8"?>

<!DOCTYPE svg PUBLIC "-//W3C//DTD SVG 1.1//EN" "http://www.w3.org/Graphics/SVG/1.1/DTD/svg11.dtd">
<svg version="1.1" id="Layer_1" xmlns="http://www.w3.org/2000/svg" xmlns:xlink="http://www.w3.org/1999/xlink" x="0px" y="0px"
	 viewBox="0 0 1834.3014 1673.2579" enable-background="new 0 0 1834.3014 1673.2579" xml:space="preserve">
<path style="fill:#0045c0" d="M1550.4814,1636.6289H458.6992c-24.6647-0.5334-44.1603-6.7874-58.9836-18.2112
	c-14.263-10.9921-29.4082-20.8324-45.9691-27.903c-214.3791-91.5286-325.2067-250.6293-312.6279-490.2587
	c2.9509-56.2159,17.1781-111.387,43.0473-161.3843c48.0091-92.7869,127.8725-182.9299,226.449-271.5197
	C484.909,514.5005,560.2625,372.8186,480.2383,248.6784c-25.6108,66.4635-79.266,87.3001-148.0838,83.4656
	C251.0088,420.6532,166.6674,478.4145,76.373,478.8816c-7.0633-1.0172-8.7506-5.2887-6.9971-11.6431
	c1.3771-4.9905,4.5805-9.2769,8.6-12.5398c70.5895-57.3023,123.5747-126.8277,162.636-206.0203
	c-12.3713-82.3995,5.3688-147.2181,72.6958-183.0855c80.2668-38.3512,165.3615-38.8849,255.781,0
	c160.0307,76.4544,193.6557,208.5031,129.2369,383.6721c-56.5584,113.7639-150.1201,235.2078-262.5504,360.5677
	c-11.1963,12.4838-21.2507,25.9787-29.8552,40.3719c-86.9529,145.4515-81.9247,274.7662,15.0849,387.9439
	c59.6027,60.0544,118.9887,93.6604,178.0122,82.9253c23.2311-4.2253,44.0269-16.7422,60.3097-33.8422
	c126.564-132.9149,13.2563-357.7959-211.3977-353.3283c35.2861-175.0983,860.7924-729.5022,1259.1643-630.8384
	c8.6201,2.1349,16.505,6.5818,22.7681,12.8778c27.3007,27.4445,48.0255,58.8465,64.2856,92.9356
	c-282.3115-9.6589-546.3945,75.7783-794.5991,244.0508c-3.0737,2.0838-5.7297,4.797-7.6605,7.969
	c-10.0477,16.5065-8.4724,27.8249,5.2075,33.7404c7.6061,3.2891,16.4121,2.2633,23.423-2.1547
	c241.0048-151.8715,475.8954-225.969,703.2126-203.7165c9.9048,0.9696,18.8901,6.2509,24.7855,14.2689
	c15.2307,20.7141,25.1664,43.4444,30.1493,68.0612c-259.0541-4.4536-483.7136,63.2777-672.5486,206.1923
	c-2.6892,2.0352-4.9746,4.6372-6.3938,7.6966c-2.7524,5.9336-1.7994,10.7005,3.9163,13.9678
	c5.9181,3.3831,13.2811,3.0241,19.3513-0.0776c226.1221-115.5437,438.939-162.9886,632.7892-113.3503
	c23.2815,9.4207,27.5652,42.5259,30.9629,76.7344c-234.1886-16.9601-436.5966,44.3887-618.5884,156.0425
	c-6.2163,3.8138-10.0026,11.0903-8.4382,18.2136c1.1301,5.1461,4.7217,9.4404,11.5151,12.6265
	c4.7758,2.2399,10.3684,1.942,15.1178-0.3533c184.4097-89.1233,367.7107-121.209,549.5898-80.0847
	c7.4396,1.6821,14.1407,5.9672,18.5314,12.2042c16.2808,23.1277,23.9902,50.0495,23.5222,80.5914
	c-210.6139-34.0458-396.71-15.3389-545.8911,82.7924c-21.4884,15.5465-23.9818,26.4467-0.6292,31.0244
	c5.3102,1.041,10.8402,0.3883,15.8502-1.6565c147.1481-60.0588,289.1429-85.4482,425.0138-69.6237
	c11.0482,1.2868,21.6058,5.3627,30.5372,11.9923c33.9617,25.2089,43.1448,58.9136,28.0016,100.9592
	c-169.5736-19.6752-319.9073-7.1848-441.1996,53.8552c-6.7798,3.412-12.8085,8.2014-17.8083,13.9117
	c-29.8134,34.0497-27.4921,62.437,17.4354,83.3159c3.9103,1.8173,8.0073,3.2185,12.1887,4.2716
	c96.8632,24.3944,250.9869-40.1418,413.9021-118.3334c-30.9199,117.0323-103.1051,213.4399-203.3259,295.835
	c-4.8801,4.0121-10.0149,7.7493-15.2217,11.3273c-29.745,20.4402-41.0647,43.1448-20.4059,69.7787
	C1516.0524,1565.9745,1542.8695,1601.1714,1550.4814,1636.6289z"/>
</svg>
