<?xml version="1.0" encoding="utf-8"?>
<!-- Generator: Adobe Illustrator 12.0.1, SVG Export Plug-In . SVG Version: 6.00 Build 51448)  -->
<!DOCTYPE svg PUBLIC "-//W3C//DTD SVG 1.1//EN" "http://www.w3.org/Graphics/SVG/1.1/DTD/svg11.dtd" [
	<!ENTITY ns_svg "http://www.w3.org/2000/svg">
	<!ENTITY ns_xlink "http://www.w3.org/1999/xlink">
]>
<svg  version="1.1" id="Layer_1" xmlns="&ns_svg;" xmlns:xlink="&ns_xlink;" width="161.1" height="138.572"
	 viewBox="0 0 161.1 138.572" overflow="visible" enable-background="new 0 0 161.1 138.572" xml:space="preserve">
<g>
	<defs>
		<rect id="XMLID_1_" width="161.1" height="138.572"/>
	</defs>
	<clipPath id="XMLID_3_">
		<use xlink:href="#XMLID_1_" />
	</clipPath>
	<path clip-path="url(#XMLID_3_)" fill="#45ad00" d="M62.865,46.798c-0.702-0.346-1.488-0.549-2.324-0.549
		c-2.476,0-4.549,1.708-5.117,4.01C58.099,48.814,60.606,47.683,62.865,46.798"/>
	<path clip-path="url(#XMLID_3_)" fill="#45ad00" d="M49.125,54.093c-0.522-0.174-1.076-0.276-1.656-0.276
		c-2.914,0-5.274,2.361-5.274,5.275c0,0.107,0.009,0.212,0.015,0.318C44.546,57.393,46.865,55.63,49.125,54.093"/>
	<path clip-path="url(#XMLID_3_)" fill="#45ad00" d="M98.061,46.798c0.702-0.346,1.487-0.549,2.323-0.549
		c2.477,0,4.55,1.708,5.116,4.01C102.827,48.814,100.319,47.683,98.061,46.798"/>
	<path clip-path="url(#XMLID_3_)" fill="#45ad00" d="M111.8,54.093c0.521-0.174,1.075-0.276,1.656-0.276
		c2.914,0,5.275,2.361,5.275,5.275c0,0.107-0.009,0.212-0.016,0.318C116.378,57.393,114.061,55.63,111.8,54.093"/>
	<path clip-path="url(#XMLID_3_)" fill="#45ad00" d="M39.121,64.622l0.104,0.081l0.084,0.102c0.046,0.056,0.382,0.478,0.681,1.266
		c5.261-5.177,17.074-15.17,32.938-18.775l-0.061-2.131c-4.36,0.809-19.505,4.546-34.105,19.165
		C38.976,64.503,39.106,64.608,39.121,64.622"/>
	<path clip-path="url(#XMLID_3_)" fill="#45ad00" d="M121.774,64.801l0.083-0.099l0.101-0.08c0.016-0.013,0.146-0.118,0.359-0.291
		C107.717,49.71,92.571,45.974,88.212,45.165l-0.06,2.13c15.862,3.605,27.675,13.597,32.937,18.774
		C121.389,65.28,121.728,64.857,121.774,64.801"/>
	<path clip-path="url(#XMLID_3_)" fill="#45ad00" d="M40.361,67.485c0.383,2.359-0.069,6.269-4.233,11.725
		c-3.07,4.021-5.859,6.285-8.037,7.562c1.1,0.756,1.918,1.562,2.636,2.267c0.593,0.582,1.104,1.084,1.638,1.423
		c0.513,0.327,1.267,0.654,1.932,0.359c0.422-0.188,0.693-0.586,0.74-0.863c0.027-0.54-2.541-5.616-2.541-5.616l1.334-0.487
		c0.429-0.054,2.709-0.125,5.523,3.713c1.041,1.42,1.983,1.768,2.627,1.81c-0.021-0.308-0.041-0.617-0.041-0.94
		c0-2.848,0.938-7.84,2.009-9.23c0,0,3.481,7.842,4.748,9.46c0.402-2.464,1.676-4.048,1.754-4.14l1.753-2.104l0.449,2.701
		c0.314,1.886,1.228,3.19,2.016,4.013c0.683-1.455,1.749-2.887,2.18-3.436l1.639-2.086l0.575,2.589
		c0.189,0.854,0.634,1.628,1.025,2.185c1.973-1.945,4.112-6.224,4.855-7.919l1.476-3.37l0.893,3.568
		c0.134,0.533,0.188,1.159,0.188,1.831c0,1.194-0.176,2.532-0.4,3.764c0.587-0.534,1.744-1.585,1.744-1.585l-0.12,2.996
		c-0.082,2.034,0.37,4.008,0.789,4.2c0.626-0.173,2.924-6.039,3.546-9.136l0.948,3.361l-1.043-37.524
		C57.06,52.269,45.222,62.618,40.361,67.485"/>
	<path clip-path="url(#XMLID_3_)" fill="#45ad00" d="M134.206,86.027c1.382-0.747,3.149-1.381,5.499-1.742
		c5.71-8.162,21.334-31.853,21.334-46.661c0-18.118-23.622-28.668-23.622-28.668s12.614,14.22,10.091,26.604
		c-2.522,12.385-24.77,30.044-24.77,30.044s-3.439,4.129,3.211,12.843C129.23,82.747,132.12,84.924,134.206,86.027"/>
	<path clip-path="url(#XMLID_3_)" fill="#45ad00" d="M26.873,86.027c2.087-1.104,4.975-3.28,8.257-7.58
		c6.651-8.714,3.211-12.843,3.211-12.843s-22.247-17.659-24.77-30.044C11.049,23.176,23.662,8.956,23.662,8.956
		S0.04,19.506,0.04,37.624c0,14.808,15.624,38.499,21.334,46.661C23.724,84.646,25.492,85.28,26.873,86.027"/>
	<path clip-path="url(#XMLID_3_)" fill="#45ad00" d="M80.616,92.438c0,0,1.529-3.669,1.759-7.568l1.605,7.568
		c0,0,3.211,0.688,3.898-6.192c0,0,1.376,6.88,3.67,6.88c2.293,0,2.063-5.504,2.063-5.504l2.523,2.293c0,0-1.835-6.191-1.147-8.943
		c0,0,3.211,7.339,6.193,9.174c0,0,1.604-1.605,2.062-3.67c0,0,2.523,3.212,2.523,4.816c0,0,3.212-1.834,3.899-5.963
		c0,0,2.293,2.752,1.376,6.65c0,0,4.587-3.898,5.963-9.861c0,0,1.376,5.504,0.688,8.256c0,0,2.523,1.377,5.045-2.063
		c2.523-3.44,4.358-3.21,4.358-3.21s-2.523,3.669-2.294,5.045s2.064,2.982,4.588,1.376s3.898-5.505,12.155-6.192
		c0,0-4.587,5.733-0.459,6.881c4.128,1.146,10.091-1.377,10.091-1.377s-2.981,3.67-5.963,4.129
		c-2.982,0.457-4.586,2.063-4.586,2.063s10.319,0.458,15.823,6.421c0,0-9.861-4.816-15.595-3.669c0,0,10.32,2.294,13.073,9.633
		c0,0-5.505-4.817-9.404-3.899c0,0,10.091,6.423,12.614,12.156c0,0-6.88-6.192-13.99-8.257c0,0,8.715,8.027,12.155,16.972
		c0,0-6.88-8.026-15.366-10.778c0,0,2.523,7.108,2.982,14.677c0,0-11.468-13.531-15.366-13.072
		c-3.899,0.459,1.835,13.76,1.835,13.76s-12.156-17.428-11.697-12.842s-0.918,12.842-0.918,12.842s-2.752-12.612-8.715-13.53
		c0,0,0.229,5.735-0.917,8.716c0,0-2.752-6.193-5.045-7.34c0,0,0.229,5.963-1.835,9.174c0,0-0.459-8.256-4.587-10.091
		c0,0-1.835,3.67,0.688,9.174c0,0-5.046-3.211-5.733-8.715c0,0-2.752,1.834-1.834,5.274c0,0-2.523-4.129-2.064-7.567
		c0,0-4.816,2.981-2.063,10.091c0,0-4.128-4.357-4.128-10.091c0,5.733-4.13,10.091-4.13,10.091
		c2.753-7.109-2.063-10.091-2.063-10.091c0.458,3.438-2.064,7.567-2.064,7.567c0.917-3.44-1.835-5.274-1.835-5.274
		c-0.688,5.504-5.732,8.715-5.732,8.715c2.521-5.504,0.687-9.174,0.687-9.174c-4.128,1.835-4.586,10.091-4.586,10.091
		c-2.063-3.211-1.835-9.174-1.835-9.174c-2.294,1.146-5.046,7.34-5.046,7.34c-1.146-2.98-0.917-8.716-0.917-8.716
		c-5.962,0.918-8.715,13.53-8.715,13.53s-1.376-8.256-0.918-12.842c0.459-4.586-11.696,12.842-11.696,12.842
		s5.734-13.301,1.835-13.76c-3.898-0.459-15.366,13.072-15.366,13.072c0.458-7.568,2.981-14.677,2.981-14.677
		c-8.486,2.752-15.366,10.778-15.366,10.778c3.44-8.944,12.155-16.972,12.155-16.972c-7.109,2.064-13.99,8.257-13.99,8.257
		c2.523-5.733,12.614-12.156,12.614-12.156c-3.898-0.918-9.403,3.899-9.403,3.899c2.753-7.339,13.073-9.633,13.073-9.633
		c-5.734-1.147-15.595,3.669-15.595,3.669c5.504-5.963,15.823-6.421,15.823-6.421s-1.604-1.606-4.587-2.063
		c-2.98-0.459-5.962-4.129-5.962-4.129s5.962,2.523,10.091,1.377c4.129-1.147-0.459-6.881-0.459-6.881
		c8.257,0.688,9.633,4.586,12.155,6.192s4.357,0,4.587-1.376c0.23-1.376-2.294-5.045-2.294-5.045s1.836-0.23,4.358,3.21
		s5.045,2.063,5.045,2.063c-0.688-2.752,0.688-8.256,0.688-8.256c1.375,5.963,5.964,9.861,5.964,9.861
		c-0.919-3.898,1.376-6.65,1.376-6.65c0.687,4.129,3.898,5.963,3.898,5.963c0-1.604,2.522-4.816,2.522-4.816
		c0.459,2.064,2.063,3.67,2.063,3.67c2.982-1.835,6.193-9.174,6.193-9.174c0.688,2.752-1.147,8.943-1.147,8.943l2.522-2.293
		c0,0-0.229,5.504,2.064,5.504c2.293,0,3.669-6.88,3.669-6.88c0.688,6.88,3.899,6.192,3.899,6.192l1.605-7.568
		C78.934,88.769,80.616,92.438,80.616,92.438"/>
	<path clip-path="url(#XMLID_3_)" fill="#45ad00" d="M88.136,48.574l-1.043,37.525l0.947-3.362c0.622,3.096,2.92,8.963,3.546,9.135
		c0.42-0.191,0.87-2.166,0.789-4.199l-0.118-2.995c0,0,1.155,1.05,1.743,1.584c-0.226-1.231-0.4-2.569-0.4-3.765
		c0-0.672,0.056-1.297,0.188-1.83l0.894-3.568l1.476,3.37c0.742,1.694,2.882,5.974,4.855,7.919c0.391-0.557,0.836-1.33,1.025-2.186
		l0.575-2.588l1.637,2.086c0.433,0.549,1.498,1.98,2.182,3.436c0.787-0.822,1.702-2.127,2.016-4.014l0.449-2.7l1.754,2.104
		c0.077,0.092,1.349,1.676,1.753,4.141c1.266-1.619,4.748-9.461,4.748-9.461c1.07,1.391,2.009,6.383,2.009,9.229
		c0,0.324-0.02,0.634-0.043,0.941c0.645-0.042,1.587-0.39,2.627-1.81c2.816-3.837,5.097-3.767,5.526-3.714l1.332,0.488
		c0,0-2.567,5.077-2.54,5.616c0.047,0.277,0.318,0.675,0.741,0.863c0.665,0.297,1.418-0.031,1.932-0.359
		c0.532-0.34,1.043-0.842,1.636-1.424c0.719-0.705,1.538-1.51,2.637-2.266c-2.179-1.277-4.968-3.541-8.036-7.562
		c-4.164-5.456-4.617-9.366-4.234-11.725C115.876,62.618,104.037,52.269,88.136,48.574"/>
	<path clip-path="url(#XMLID_3_)" fill="#45ad00" d="M80.549,88.393c0.283-1.09,0.516-2.332,0.59-3.596l1.337-2.49
		c0,0,1.926,3.211,2.479,8.595c0.215-0.175,0.498-0.488,0.778-1.048l1.206-43.445c-0.977,0.426-2.901,0.958-6.39,0.958
		c-3.489,0-5.412-0.532-6.391-0.958l1.207,43.445c0.28,0.56,0.564,0.873,0.777,1.048c0.554-5.384,2.479-8.595,2.479-8.595
		l1.336,2.49C80.032,86.061,80.266,87.303,80.549,88.393"/>
	<path clip-path="url(#XMLID_3_)" fill="#45ad00" d="M80.54,33.727c0,0,4.357,5.274,6.422,11.237c0,0-1.377,1.147-6.422,1.147
		s-6.422-1.147-6.422-1.147C76.182,39,80.54,33.727,80.54,33.727"/>
	<path clip-path="url(#XMLID_3_)" fill="#45ad00" d="M75.724,51.615c0-1.647,2.156-2.982,4.816-2.982s4.815,1.335,4.815,2.982
		s-2.155,2.981-4.815,2.981S75.724,53.262,75.724,51.615"/>
	<path clip-path="url(#XMLID_3_)" fill="#45ad00" d="M76.979,51.615c0,0.704,1.387,1.726,3.561,1.726
		c2.172,0,3.561-1.022,3.561-1.726c0-0.704-1.389-1.726-3.561-1.726C78.366,49.889,76.979,50.911,76.979,51.615"/>
	<path clip-path="url(#XMLID_3_)" fill="#45ad00" d="M76.183,63.999c0-2.026,1.951-3.669,4.357-3.669s4.357,1.643,4.357,3.669
		c0,2.026-1.951,3.669-4.357,3.669S76.183,66.025,76.183,63.999"/>
	<path clip-path="url(#XMLID_3_)" fill="#45ad00" d="M77.438,63.999c0,1.331,1.393,2.414,3.103,2.414s3.102-1.083,3.102-2.414
		c0-1.331-1.392-2.414-3.102-2.414S77.438,62.668,77.438,63.999"/>
	<path clip-path="url(#XMLID_3_)" fill="#45ad00" d="M76.87,77.529c0-2.025,1.644-3.668,3.67-3.668c2.025,0,3.669,1.643,3.669,3.668
		c0,2.026-1.644,3.67-3.669,3.67C78.514,81.199,76.87,79.556,76.87,77.529"/>
	<path clip-path="url(#XMLID_3_)" fill="#45ad00" d="M78.126,77.529c0,1.332,1.083,2.414,2.414,2.414s2.413-1.082,2.413-2.414
		c0-1.33-1.082-2.412-2.413-2.412S78.126,76.199,78.126,77.529"/>
</g>
</svg>
